<?xml version="1.0" encoding="UTF-8" standalone="no"?>
<!-- Created with Inkscape (http://www.inkscape.org/) -->

<svg
   version="1.1"
   id="svg1"
   width="2454.4072"
   height="1893.6665"
   viewBox="0 0 2454.4072 1893.6666"
   xmlns="http://www.w3.org/2000/svg"
   xmlns:svg="http://www.w3.org/2000/svg">
  <defs
     id="defs1" />
  <g
     id="g1"
     transform="translate(-1480.8168,-378.79734)">
    <g
       id="g5">
      <path
         d="m 0,0 c -2.8437,-0.3945 -5.6836,-0.7852 -8.5273,-1.1758 -16.1446,-2.2109 -32.2969,-4.3476 -48.4766,-6.25 -0.7149,-0.082 -1.4258,-0.1679 -2.1406,-0.25 -1.125,-0.1289 -2.25,-0.2617 -3.375,-0.3867 -1.3907,-0.1602 -2.7852,-0.3164 -4.1758,-0.4727 -2.1055,2.4493 -4.211,4.9024 -6.3164,7.3516 -17.2539,20.082 -34.4649,40.207 -50.5625,61.2188 -3.1289,4.2929 -6.3867,8.5312 -9.2891,12.9843 -0.2148,0.3243 -0.4258,0.6485 -0.6289,0.9727 -0.2226,0.3476 -0.4453,0.6992 -0.6601,1.0508 -0.0157,0.0234 -0.0313,0.0508 -0.0469,0.0742 -0.2031,0.3281 -0.4024,0.6562 -0.6016,0.9883 -0.0859,0.1445 -0.1719,0.289 -0.2539,0.4336 -0.1836,0.3086 -0.3633,0.6172 -0.539,0.9297 -0.2344,0.4101 -0.461,0.8203 -0.6875,1.2343 -0.586,1.1211 -0.504,2.4414 0.1718,3.4024 2.1992,-0.7774 4.3946,-1.5547 6.5938,-2.336 31.3437,-11.0976 62.625,-22.375 93.8984,-33.6757 3.9844,-1.4375 7.9649,-2.875 11.9531,-4.3204 2.1211,-3.707 4.2422,-7.414 6.3633,-11.1211 C -13.0469,23.1914 -8.8047,15.7187 -4.5977,8.2266 -3.0586,5.4883 -1.5273,2.7461 0,0 Z m 275.3828,86.2891 c -0.4492,0.3476 -0.8945,0.6914 -1.3437,1.039 -9.2344,2.5235 -18.6368,4.8672 -27.8477,7.1914 -15.6016,3.9063 -31.0625,8.3594 -46.543,12.6993 C 180.0273,87.5938 159.4609,68.918 140.5937,48.5547 113.668,20.0586 93.7617,-14.7344 64.1602,-40.6992 c -4.1407,-2.9766 -7.6954,-7.6953 -12.7774,-8.918 -2.7148,-0.1601 -4.5937,3.0586 -3.2226,5.3516 1.207,1.4804 2.4218,2.9297 3.6132,4.4336 4.6797,4.6015 9.1797,9.3711 13.5508,14.2578 -9.1953,10.0039 -13.6953,23.4297 -19.3789,35.5781 -0.8945,2.125 -1.793,4.2578 -2.5937,6.4258 -0.3711,0.7539 -0.7383,1.5117 -1.1016,2.2695 -0.7695,1.5821 -1.5234,3.1719 -2.2695,4.7656 -0.375,0.7969 -0.7461,1.5938 -1.1172,2.3946 -0.3711,0.7969 -0.7383,1.5976 -1.1055,2.3984 0,0 0.0039,0 0.0039,0 1.2344,0.6953 2.4571,1.3985 3.6524,2.1289 1.9375,1.0938 3.8672,2.1914 5.8047,3.2891 6.246,3.5586 12.4609,7.1758 18.5078,11.0664 2.9922,1.9453 5.9687,3.9101 8.9414,5.8867 3.7265,17.2969 7.3593,34.6094 10.9414,51.9375 1,4.7383 1.9023,9.2188 2.6992,13.457 0.0937,0.4961 0.1875,0.9922 0.2734,1.4805 0.1797,0.9688 0.3555,1.9258 0.5235,2.8711 0.0859,0.4766 0.1679,0.9453 0.25,1.4141 0.082,0.4687 0.164,0.9297 0.2422,1.3906 0.0781,0.4492 0.1523,0.8984 0.2265,1.3398 0.0039,0.0118 0.0039,0.0235 0.0039,0.0313 0.1563,0.9101 0.3008,1.8086 0.4414,2.6914 0.0703,0.4414 0.1407,0.8789 0.2071,1.3164 0.0117,0.0664 0.0195,0.1328 0.0312,0.1953 0.0547,0.3711 0.1133,0.7383 0.1641,1.1055 0.0703,0.4531 0.1367,0.9023 0.2031,1.3515 0.0781,0.5352 0.1523,1.0703 0.2266,1.5977 0.1562,1.1133 0.3007,2.207 0.4336,3.2812 0.0507,0.4024 0.1015,0.8008 0.1484,1.1954 0.0469,0.3984 0.0937,0.789 0.1367,1.1796 0.0899,0.7813 0.1758,1.5469 0.25,2.3047 0.0469,0.4297 0.086,0.8555 0.125,1.2774 0.0703,0.6953 0.1289,1.3828 0.1836,2.0586 0.0313,0.3632 0.0625,0.7226 0.0859,1.082 0.0235,0.2656 0.043,0.5312 0.0586,0.7969 0.0157,0.2226 0.0313,0.4492 0.0469,0.6718 0.0274,0.4415 0.0547,0.8829 0.0781,1.3204 0.0625,1.0898 0.1094,2.1523 0.1368,3.1914 0.0039,0.125 0.0078,0.25 0.0117,0.375 0.0117,0.4961 0.0234,0.9882 0.0273,1.4726 0,0.008 0,0.0196 0,0.0313 0.0039,0.1914 0.0039,0.3828 0.0039,0.5703 0.0039,0.207 0.0039,0.4101 0.0039,0.6094 0,0.3906 -0.0039,0.7734 -0.0078,1.1562 -0.0039,0.2617 -0.0078,0.5195 -0.0117,0.7774 -0.0039,0.2304 -0.0117,0.4609 -0.0195,0.6875 -0.0078,0.3789 -0.0235,0.7539 -0.043,1.125 -0.0195,0.5742 -0.0508,1.1367 -0.0898,1.6914 -0.0157,0.2968 -0.0391,0.5937 -0.0625,0.8867 -0.0157,0.1875 -0.0313,0.375 -0.0469,0.5625 -0.0235,0.2656 -0.0469,0.5273 -0.0742,0.789 -0.0313,0.3438 -0.0703,0.6797 -0.1094,1.0157 -0.0352,0.3203 -0.0742,0.6328 -0.1172,0.9453 -0.0156,0.1445 -0.0391,0.289 -0.0586,0.4336 -0.0273,0.1992 -0.0547,0.3906 -0.0859,0.5859 -0.043,0.2852 -0.086,0.5625 -0.1328,0.8399 -0.0079,0.0664 -0.0196,0.1328 -0.0352,0.1953 -0.0469,0.289 -0.0977,0.5742 -0.1523,0.8554 -0.0586,0.3086 -0.1172,0.6133 -0.1836,0.918 -0.0508,0.2539 -0.1055,0.5039 -0.1641,0.75 -0.0312,0.1406 -0.0625,0.2813 -0.0977,0.418 -0.0429,0.1836 -0.0859,0.3633 -0.1328,0.5429 -0.0781,0.3164 -0.1601,0.625 -0.2461,0.9297 -0.0625,0.2383 -0.1328,0.4727 -0.2031,0.7071 -0.0234,0.0937 -0.0508,0.1875 -0.082,0.2773 -0.0703,0.2305 -0.1406,0.4609 -0.2149,0.6875 -0.1054,0.332 -0.2187,0.6602 -0.3359,0.9805 -0.0547,0.1562 -0.1094,0.3125 -0.1719,0.4648 -0.2109,0.5781 -0.4375,1.1445 -0.6797,1.6953 -0.1093,0.2539 -0.2226,0.5 -0.3359,0.7461 -0.1133,0.2461 -0.2305,0.4922 -0.3516,0.7305 -0.2148,0.4336 -0.4375,0.8633 -0.6718,1.2812 -0.0547,0.1055 -0.1133,0.2071 -0.1719,0.3086 -0.0977,0.1719 -0.1992,0.3438 -0.3008,0.5118 -0.1523,0.2617 -0.3125,0.5195 -0.4805,0.7695 -0.1171,0.1875 -0.2382,0.375 -0.3632,0.5625 -0.1289,0.1914 -0.2618,0.3867 -0.3985,0.5742 -0.3125,0.4492 -0.6406,0.8906 -0.9844,1.3203 -11.664,14.7305 -37.1992,18.5352 -79.8554,30.9492 -36.1524,11.2149 -72.836,20.5313 -109.5235,29.8008 -17.7695,4.9805 -35.5117,10.0977 -53.3359,14.875 -0.004,0 -0.008,0.004 -0.008,0.004 -1.9492,0.5196 -3.8945,1.0391 -5.8438,1.5508 -1.9531,0.5156 -3.9062,1.0234 -5.8593,1.5273 -15.0821,3.8868 -30.2383,7.461 -45.5469,10.4336 -17.9297,2.5235 -45.0039,12.5313 -60.4649,-0.0429 -6.3164,-6.1407 -10.6992,-13.8828 -15.0937,-21.4883 14.0234,-7.2969 28.0742,-14.5391 42.1641,-21.7031 20.3242,-9.9766 40.7343,-19.8516 61.3437,-29.2735 -1.7617,0.2813 -3.5234,0.5586 -5.2851,0.8399 -4.3047,0.6875 -8.6172,1.3437 -12.9454,1.8906 -3.2656,0.4102 -6.5351,0.7617 -9.8086,1.1055 -0.004,0 -0.008,0.004 -0.0117,0.004 -1.0351,0.1093 -2.0703,0.2187 -3.1054,0.3242 -4.2422,0.4336 -8.4883,0.8437 -12.7383,1.1719 -3.2227,0.2461 -6.4453,0.3945 -9.6719,0.4882 -6.2031,0.4024 -12.4141,0.6641 -18.6016,0.9688 -29.4648,0.7344 -49.6757,-10.3125 -67.2851,-28.2305 -5.0703,-10.2929 -10.25,-20.5312 -14.3867,-31.2304 -4.3282,-10.4102 -3.7305,-22.2188 3.3086,-31.293 19.1562,-24.3906 39.9843,-47.5391 61.5742,-69.8906 26.1992,-25.125 54.3008,-48.2774 82.9101,-70.5938 11.0118,-8.2812 22.1485,-16.3984 33.4141,-24.332 24.1133,-1.7813 48.1211,-7.4453 69.8281,-17.9961 19.9414,8.5469 41.5039,13.5859 63.043,14.9922 45.3672,1.9883 91.543,-5.4688 132.9922,-24.1016 2.0039,8.7813 7.1172,17.4531 13.7344,23.7617 6.4531,4.5118 14.7656,5.2266 22.3906,6.1094 6.7656,0.4453 13.6797,0.1406 20.3789,-1.1484 0.5273,1.1133 1.4179,2.1328 2.4375,2.8047 18.5078,14.0351 33.125,32.289 48.4336,49.5937 17.1093,20.8203 35.6328,42.2344 50.875,64.7188 3.7383,5.8164 7.2656,11.7578 10.7109,17.75 z"
         style="fill:#565b5f;fill-opacity:1;fill-rule:nonzero;stroke:none"
         transform="matrix(1.3333333,0,0,1.3333333,1951.3959,659.19267)"
         id="path2" />
      <path
         d="M 0,0 C 1.1719,30.3008 2.9805,61.3008 9.3281,91.0938 -3.6289,89.0781 -16.3555,85.0234 -28.125,79.4336 -46.5352,70.8281 -50.1758,41.2617 -55.9141,23.3594 -67.4609,-20.1797 -69.7656,-65.4453 -68.375,-110.3047 c -0.0195,-0.3164 -0.0273,-0.6328 -0.0313,-0.9531 20.2461,12.0859 43.211,21.2305 69.2657,27.5547 C -1.5938,-55.9102 -0.668,-27.8594 0,0 Z"
         style="display:inline;fill:#565b5f;fill-opacity:1;fill-rule:nonzero;stroke:none"
         transform="matrix(1.3333333,0,0,1.3333333,2054.4688,2015.1303)"
         id="path3" />
      <path
         d="m 0,0 c -0.2891,30.0781 -0.9766,60.1563 -2.5586,90.1992 -2.125,33.7813 -1.4687,74.6524 -25.7773,100.9336 -15.2891,16.0156 -38.9336,20.3828 -60.1485,22.2188 -20.3047,0.9804 -37.2109,-15.2149 -46.1797,-32.1133 -8.6015,-22.9649 -13.6484,-47.1953 -18.4296,-71.2031 -5.4922,-29.2891 -5.2969,-59.4024 0.1992,-88.6524 36.0312,0.0781 71.664,-7.7578 107.164,-13.1953 C -30.4492,5.6562 -15.2266,2.8281 0,0 Z"
         style="display:inline;fill:#565b5f;fill-opacity:1;fill-rule:nonzero;stroke:none"
         transform="matrix(1.3333333,0,0,1.3333333,2634.7292,1975.2864)"
         id="path4" />
      <path
         d="m 0,0 c -0.0664,26.5273 9.5742,56.2188 -4.8516,80.4844 -8.4687,6.9531 -20.6445,8.3554 -30.9062,11.7109 -36.6758,9.3008 -56.2266,13.7227 -81.4297,-19.5547 -18.1367,-26.7734 -20.1211,-60.0859 -22.0742,-91.4297 -2.086,-30.6328 -2.5078,-61.3398 -3.3086,-92.0195 0.043,-0.5547 0.0469,-1.1719 0,-1.8047 14.4414,11.3985 33.5859,17.8594 51.7812,18.4375 25.3282,-0.168 50.3282,-6.4648 74.6446,-13.0937 4.2695,-0.9649 8.5117,-2.375 12.5468,-4.2266 0.1407,3.2695 0.2774,6.543 0.4141,9.8125 C -1.6797,-67.8047 -0.6797,-33.9023 0,0 Z"
         style="fill:#565b5f;fill-opacity:1;fill-rule:nonzero;stroke:none"
         transform="matrix(1.3333333,0,0,1.3333333,3826.8073,1891.5)"
         id="path5" />
      <path
         style="fill:#f9f9f9;stroke-width:2.39419"
         d="m 939.0213,1607.733 c -4.33353,-1.0267 -9.83278,-3.6348 -12.22055,-5.7957 -2.38777,-2.1609 -13.20733,-21.1809 -24.04347,-42.2667 -21.6979,-42.2214 -37.80046,-87.5208 -54.89451,-154.4283 -14.84862,-58.1187 -19.15976,-87.8821 -21.94367,-151.4957 -1.36366,-31.1595 -3.57718,-60.7494 -4.91895,-65.7552 -2.43494,-9.0842 -7.99641,-13.7714 -11.59387,-9.7714 -4.49908,5.0026 2.86998,157.2584 8.53946,176.4381 1.49654,5.0628 -0.029,4.8957 -44.62374,-4.8871 -83.07504,-18.2243 -136.00989,-39.0051 -187.94358,-73.7816 -18.44809,-12.3534 -87.95911,-63.4625 -113.48599,-83.4423 -8.76181,-6.8578 5.34864,43.1004 22.24694,78.7655 24.03971,50.7377 77.05623,124.1225 126.32512,174.8576 l 14.02962,14.4471 -4.85718,14.2831 c -6.73375,19.8013 -14.57897,32.9097 -21.75769,36.3544 -4.98688,2.3929 -9.49508,2.1009 -25.06452,-1.6236 -57.71639,-13.8069 -110.44592,-42.3255 -144.85374,-78.3438 -40.30314,-42.1895 -67.03084,-94.3546 -96.86727,-189.0581 -25.98024,-82.4637 -31.4705,-115.7402 -28.97528,-175.6195 4.75299,-114.06023 7.43981,-147.41971 15.09338,-187.39929 l 4.02082,-21.0033 26.51709,25.96705 c 43.33913,42.44015 81.17786,69.95696 124.26667,90.36832 25.42178,12.04242 142.39982,52.05722 147.01033,50.28802 1.67107,-0.6412 3.03832,-3.2065 3.03832,-5.7005 0,-3.6741 -6.24629,-6.7101 -32.92006,-16.0006 -92.86787,-32.34603 -140.06939,-56.28853 -189.65354,-96.19994 -18.58562,-14.96 -53.17112,-49.30139 -68.24914,-67.76745 -27.96387,-34.24737 -72.09646,-102.79008 -68.2543,-106.00634 0.63045,-0.52775 57.17022,-29.2778 125.64393,-63.88903 131.18069,-66.30755 149.38596,-76.0924 165.79633,-89.11102 24.89319,-19.74823 40.59115,-52.99844 43.02242,-91.12676 1.47652,-23.15515 -0.9544,-41.96907 -11.52073,-89.16372 -8.82236,-39.4053 -8.83663,-38.83919 0.82085,-32.54519 4.27961,2.78911 25.55793,15.86524 47.28517,29.05802 21.72723,13.1928 56.65927,36.2835 77.62673,51.31264 20.96747,15.02914 39.28299,26.66294 40.70116,25.85287 1.41817,-0.81007 23.39536,-17.64306 48.8382,-37.40666 36.67625,-28.48952 46.01381,-36.8741 45.07275,-40.47271 C 850.3877,373.15188 750.36899,247.48382 717.52586,221.33373 l -11.64582,-9.27253 7.23848,-4.2777 c 3.98117,-2.35274 10.55525,-6.12376 14.60906,-8.38004 8.32446,-4.63324 11.54507,-10.55411 7.7857,-14.31349 -1.77955,-1.77954 -8.09819,-0.17926 -21.26705,5.38618 -15.80768,6.68067 -22.28939,8.05326 -41.48003,8.78399 -26.98964,1.02769 -32.05858,-0.98908 -39.91999,-15.88295 -7.50934,-14.22692 -7.2839,-26.54742 0.6585,-35.98643 5.60398,-6.65995 6.48719,-14.52775 1.62819,-14.5045 -5.93452,0.0284 -18.28102,10.93903 -22.14507,19.56966 -3.70273,8.27034 -6.61063,10.82097 -17.63868,15.4715 -39.89008,16.82167 -87.62514,25.64339 -139.25676,25.73547 -31.54837,0.0563 -41.98509,-0.85246 -59.1541,-5.15056 -26.73833,-6.69369 -55.23967,-17.70493 -69.9122,-27.00997 -6.35019,-4.02717 -13.30697,-6.98296 -15.45951,-6.56842 -7.55751,1.45544 -4.10315,10.03958 7.48562,18.60186 l 11.39933,8.42232 -13.79352,4.20411 c -33.39958,10.17982 -82.71341,14.60875 -98.0327,8.80443 -15.59909,-5.91034 -25.38032,-21.07321 -25.38032,-39.34459 0,-27.5332 24.70557,-52.68818 66.82518,-68.04077 61.05916,-22.256059 129.80139,-23.622746 185.08792,-3.679792 18.7974,6.780602 24.10232,7.295161 24.10232,2.337839 0,-7.618673 -51.57539,-28.110423 -80.31832,-31.911791 l -14.25202,-1.884885 9.57674,-5.003781 C 440.09647,18.268283 539.66989,8.2441579 604.5319,25.264652 c 16.81205,4.411661 77.81104,27.845599 77.81104,29.892607 0,0.421482 -6.19496,2.550399 -13.76657,4.730925 -32.9562,9.490962 -69.93479,27.951398 -75.01872,37.45083 -2.07179,3.871166 -1.87788,5.755846 0.87551,8.509226 3.11948,3.11949 4.66119,2.79257 13.06873,-2.77129 13.14635,-8.699838 46.42884,-21.439015 75.58576,-28.931136 97.21409,-24.979989 171.19877,9.074086 181.95726,83.752296 3.38844,23.52034 -0.11849,48.32123 -12.78886,90.44219 -10.13732,33.70017 -11.00698,38.94676 -6.87873,41.49818 5.02436,3.10523 9.00285,-5.17236 21.02097,-43.73591 12.97218,-41.62493 17.76239,-69.44544 15.39663,-89.42051 l -1.47834,-12.48228 51.24834,1.27289 c 36.25089,0.90039 59.3057,2.71013 78.78148,6.18414 25.8125,4.60433 59.8546,13.67453 59.8546,15.94768 0,2.92589 -29.2823,51.30437 -44.9165,74.20827 -42.56723,62.36059 -81.8115,103.3293 -128.46207,134.10684 -15.48243,10.21446 -19.35871,18.43837 -9.36186,19.86203 10.33919,1.4724 44.88794,-21.8165 72.97878,-49.19415 l 13.53888,-13.19513 0.88484,15.26193 c 3.26275,56.27668 -15.14662,138.76897 -44.6926,200.2671 -17.20991,35.8214 -31.71999,57.17297 -56.29267,82.83464 -28.7225,29.99537 -47.54774,41.91056 -108.32216,68.56105 -12.8307,5.62646 -24.43115,11.55849 -25.77879,13.18227 -3.49001,4.20522 -0.31125,10.74185 5.22375,10.74185 4.96071,0 82.48166,-32.25212 87.5775,-36.43608 4.8533,-3.98484 3.48076,0.46653 -4.53105,14.69481 -24.96786,44.34088 -78.11455,91.61237 -134.93027,120.01422 -15.80163,7.89913 -45.42968,20.25993 -65.84011,27.46844 -36.31463,12.82549 -44.08115,17.34334 -41.47767,24.12793 2.18015,5.68138 10.23632,3.92412 57.19253,-12.47519 50.05644,-17.48208 64.85966,-24.25885 93.22059,-42.6755 55.59587,-36.10214 96.57791,-82.00713 117.30971,-131.40151 5.45166,-12.98876 10.49391,-19.85062 24.63021,-33.5186 26.66364,-25.78025 46.52914,-53.68023 65.08341,-91.40606 34.96088,-71.08488 54.06528,-158.43019 47.86583,-218.84234 -2.27426,-22.16214 -2.10828,-24.93983 1.78481,-29.86821 17.61951,-22.30505 43.94901,-58.7848 55.02911,-76.24328 14.577,-22.96849 10.9217,-20.93286 46.2277,-25.74455 98.3025,-13.39719 232.7256,-24.25946 359.1279,-29.01989 104.7905,-3.94651 153.6586,-1.52348 318.4267,15.78864 42.796,4.49657 92.3557,9.34001 110.1325,10.76321 173.0359,13.85311 343.6908,46.03192 403.4203,76.06918 31.8125,15.99814 49.6409,32.61369 75.1098,70.00017 26.2916,38.59421 28.7312,44.29737 33.8405,79.10934 5.8238,39.67991 8.9015,97.84709 10.8257,204.60168 1.6559,91.86792 0.7799,106.58874 -11.2162,188.48462 l -7.6193,52.01603 -10.9662,3.58821 c -14.4692,4.73443 -67.7521,18.35201 -68.5701,17.52456 -2.29,-2.31638 -6.2693,-47.21196 -9.4322,-106.41684 -5.1719,-96.80974 -13.9638,-161.41974 -27.1714,-199.67728 l -4.611,-13.35625 11.4991,-14.79762 c 15.8516,-20.39861 33.4503,-47.44288 33.4503,-51.40372 0,-4.5927 -20.5063,-38.22119 -34.6291,-56.7886 -22.0706,-29.01643 -65.5463,-69.36553 -74.7408,-69.36553 -9.5252,0 -4.2008,8.40008 21.4805,33.88865 29.3978,29.17715 48.7173,53.55873 62.6442,79.058 l 8.7289,15.98213 -22.804,29.98138 -22.8041,29.98138 3.6461,10.29986 c 5.9959,16.93798 17.3142,77.41791 21.1936,113.24985 1.996,18.43523 4.7512,57.75973 6.1228,87.38778 4.5216,97.67325 8.1555,120.45668 22.7688,142.75076 10.4777,15.9848 27.1893,24.84224 46.8708,24.84224 12.9609,0 13.6581,0.31165 14.9306,6.6741 4.4896,22.44818 11.216,237.75399 8.7675,280.63909 -2.3735,41.5698 -9.4232,78.6204 -17.1437,90.0998 -7.5958,11.2941 -28.5963,21.1477 -60.5944,28.4313 -59.677,13.5841 -82.7215,13.486 -111.2534,-0.4734 -32.2568,-15.7817 -48.1431,-43.8429 -90.5625,-159.9669 -31.8099,-87.0801 -30.6825,-83.5671 -47.2543,-147.2424 -18.3029,-70.32617 -20.504,-81.19232 -22.3037,-110.10654 -1.311,-21.06132 -2.2254,-25.23939 -5.6675,-25.89657 -2.7879,-0.53228 -4.7077,1.37907 -5.9855,5.95949 -2.8805,10.32538 -1.2943,45.85627 2.9866,66.89635 5.371,26.39777 31.2381,129.28177 35.571,141.48007 l 3.5871,10.0985 -25.6042,8.2442 c -150.4741,48.4509 -339.3947,80.4478 -566.6902,95.9783 -51.2992,3.5051 -190.5001,9.2702 -191.4865,7.9305 -0.2713,-0.3684 1.9306,-22.1217 4.893,-48.3407 2.9624,-26.219 4.8326,-49.1134 4.1561,-50.8764 -1.9689,-5.1307 -10.1995,-3.7001 -12.5503,2.1814 -1.1842,2.9628 -3.3652,16.6994 -4.8468,30.5258 -12.6339,117.9011 -33.1038,266.5933 -44.3417,322.0956 -7.5443,37.2599 -13.5854,52.1643 -23.6612,58.3759 -14.3101,8.822 -208.31771,41.7293 -239.7153,40.6602 -3.95848,-0.1348 -10.74286,-1.0852 -15.0764,-2.1119 z"
         id="path9"
         transform="translate(1480.8168,378.79734)" />
    </g>
    <g
       id="g7">
      <path
         d="M 0,0 C 2.8437,0.3906 5.6836,0.7812 8.5273,1.1758 7,3.9219 5.4687,6.6641 3.9297,9.4023 c -4.207,7.4922 -8.4492,14.9649 -12.7031,22.4258 -2.1211,3.7071 -4.2422,7.4141 -6.3633,11.1211 -3.9883,1.4453 -7.9688,2.8828 -11.9531,4.3203 -31.2735,11.3008 -62.5547,22.5782 -93.8985,33.6758 -2.1992,0.7813 -4.3945,1.5586 -6.5937,2.336 -0.6758,-0.961 -0.7578,-2.2813 -0.1719,-3.4024 0.2266,-0.4141 0.4531,-0.8242 0.6875,-1.2344 0.1758,-0.3125 0.3555,-0.6211 0.5391,-0.9297 0.082,-0.1445 0.1679,-0.289 0.2539,-0.4335 0.1992,-0.3321 0.3984,-0.6602 0.6015,-0.9883 0.0156,-0.0235 0.0313,-0.0508 0.0469,-0.0742 0.2148,-0.3516 0.4375,-0.7032 0.6602,-1.0508 0.2031,-0.3242 0.414,-0.6485 0.6289,-0.9727 2.9023,-4.4531 6.1601,-8.6914 9.289,-12.9844 16.0977,-21.0117 33.3086,-41.1367 50.5625,-61.2187 2.1055,-2.4492 4.211,-4.9024 6.3164,-7.3516 1.3907,0.1563 2.7852,0.3125 4.1758,0.4727 1.125,0.125 2.25,0.2578 3.375,0.3867 0.7149,0.082 1.4258,0.168 2.1406,0.25 C -32.2969,-4.3477 -16.1445,-2.2109 0,0 Z"
         style="display:inline;fill:#000000;fill-opacity:1;fill-rule:nonzero;stroke:none"
         transform="matrix(1.3333333,0,0,1.3333333,1940.026,657.62493)"
         id="path6" />
      <path
         d="m 0,0 c -6.3477,-29.793 -8.1562,-60.793 -9.3281,-91.0938 -0.668,-27.8593 -1.5938,-55.9101 0.8594,-83.7031 -26.0547,-6.3242 -49.0196,-15.4687 -69.2657,-27.5547 0.0039,0.3204 0.0117,0.6368 0.0313,0.9532 -1.3907,44.8593 0.914,90.125 12.4609,133.664 5.7383,17.9024 9.3789,47.4688 27.7891,56.0742 C -25.6836,-6.0703 -12.957,-2.0156 0,0 Z m 187.4062,-1020.7187 c 0.4493,-0.3477 0.8946,-0.6915 1.3438,-1.0391 -3.4453,-5.9922 -6.9727,-11.9336 -10.7109,-17.75 -15.2422,-22.4844 -33.7657,-43.8985 -50.875,-64.7188 -15.3086,-17.3047 -29.9258,-35.5586 -48.4336,-49.5937 -1.0196,-0.6719 -1.9102,-1.6914 -2.4375,-2.8047 -6.6992,1.2891 -13.6133,1.5937 -20.3789,1.1484 -7.625,-0.8828 -15.9375,-1.5976 -22.3907,-6.1093 -6.6171,-6.3086 -11.7304,-14.9805 -13.7343,-23.7618 -41.4493,18.6329 -87.625,26.0899 -132.9922,24.1016 -21.5391,-1.4062 -43.1016,-6.4453 -63.043,-14.9922 -21.707,10.5508 -45.7148,16.2149 -69.8281,17.9961 -11.2656,7.9336 -22.4024,16.0508 -33.4141,24.332 -28.6094,22.3164 -56.7109,45.4688 -82.9101,70.5938 -21.5899,22.3516 -42.418,45.5 -61.5743,69.8906 -7.039,9.0742 -7.6367,20.8828 -3.3085,31.293 4.1367,10.6992 9.3164,20.9375 14.3867,31.2305 17.6093,17.9179 37.8203,28.9648 67.2851,28.2304 6.1875,-0.3047 12.3985,-0.5664 18.6016,-0.9687 3.2266,-0.0938 6.4492,-0.2422 9.6719,-0.4883 4.25,-0.3281 8.4961,-0.7383 12.7382,-1.1719 1.0352,-0.1054 2.0704,-0.2148 3.1055,-0.3242 0.004,0 0.008,-0.004 0.0117,-0.004 3.2735,-0.3438 6.543,-0.6953 9.8086,-1.1055 4.3282,-0.5468 8.6407,-1.2031 12.9453,-1.8906 1.7618,-0.2812 3.5235,-0.5586 5.2852,-0.8398 -20.6094,9.4218 -41.0195,19.2968 -61.3438,29.2734 -14.0898,7.1641 -28.1406,14.4062 -42.164,21.7031 4.3945,7.6055 8.7773,15.3477 15.0937,21.4883 15.461,12.5742 42.5352,2.5664 60.4649,0.043 15.3086,-2.9727 30.4648,-6.5469 45.5469,-10.4336 1.9531,-0.5039 3.9062,-1.0117 5.8593,-1.5274 1.9492,-0.5117 3.8946,-1.0312 5.8438,-1.5507 0,0 0.004,-0.004 0.008,-0.004 17.8242,-4.7773 35.5664,-9.8945 53.3359,-14.875 36.6875,-9.2695 73.3711,-18.5859 109.5235,-29.8007 42.6562,-12.4141 68.1914,-16.2188 79.8554,-30.9493 0.3438,-0.4296 0.6719,-0.871 0.9844,-1.3203 0.1367,-0.1875 0.2695,-0.3828 0.3984,-0.5742 0.125,-0.1875 0.2461,-0.375 0.3633,-0.5625 0.168,-0.25 0.3281,-0.5078 0.4805,-0.7695 0.1016,-0.168 0.2031,-0.3399 0.3008,-0.5117 0.0586,-0.1016 0.1172,-0.2032 0.1719,-0.3086 0.2343,-0.418 0.457,-0.8477 0.6718,-1.2813 0.1211,-0.2383 0.2383,-0.4844 0.3516,-0.7304 0.1133,-0.2461 0.2265,-0.4922 0.3359,-0.7461 0.2422,-0.5508 0.4688,-1.1172 0.6797,-1.6954 0.0625,-0.1523 0.1172,-0.3085 0.1719,-0.4648 0.1172,-0.3203 0.2305,-0.6484 0.3359,-0.9805 0.0742,-0.2265 0.1446,-0.457 0.2149,-0.6875 0.0312,-0.0898 0.0586,-0.1836 0.082,-0.2773 0.0703,-0.2344 0.1406,-0.4688 0.2031,-0.707 0.086,-0.3047 0.168,-0.6133 0.2461,-0.9297 0.0469,-0.1797 0.0899,-0.3594 0.1328,-0.543 0.0352,-0.1367 0.0664,-0.2773 0.0977,-0.418 0.0586,-0.2461 0.1133,-0.4961 0.164,-0.75 0.0665,-0.3047 0.125,-0.6093 0.1836,-0.9179 0.0547,-0.2813 0.1055,-0.5664 0.1524,-0.8555 0.0156,-0.0625 0.0273,-0.1289 0.0351,-0.1953 0.0469,-0.2774 0.0899,-0.5547 0.1329,-0.8399 0.0312,-0.1953 0.0585,-0.3867 0.0859,-0.5859 0.0195,-0.1445 0.043,-0.2891 0.0586,-0.4336 0.043,-0.3125 0.082,-0.625 0.1172,-0.9453 0.039,-0.3359 0.0781,-0.6719 0.1093,-1.0156 0.0274,-0.2617 0.0508,-0.5235 0.0743,-0.7891 l 0.0468,-0.5625 c 0.0235,-0.293 0.0469,-0.5898 0.0625,-0.8867 0.0391,-0.5547 0.0704,-1.1172 0.0899,-1.6914 0.0195,-0.3711 0.0351,-0.7461 0.043,-1.125 0.0078,-0.2266 0.0156,-0.457 0.0195,-0.6875 0.0039,-0.2578 0.0078,-0.5156 0.0117,-0.7774 0.0039,-0.3828 0.0078,-0.7656 0.0078,-1.1562 0,-0.1992 0,-0.4024 -0.0039,-0.6094 0,-0.1875 0,-0.3789 -0.0039,-0.5703 v -0.0312 c -0.0039,-0.4844 -0.0156,-0.9766 -0.0273,-1.4727 -0.0039,-0.125 -0.0079,-0.25 -0.0118,-0.375 -0.0273,-1.0391 -0.0742,-2.1016 -0.1367,-3.1914 -0.0234,-0.4375 -0.0508,-0.8789 -0.0781,-1.3203 -0.0156,-0.2227 -0.0313,-0.4492 -0.0469,-0.6719 -0.0156,-0.2656 -0.0351,-0.5312 -0.0586,-0.7969 -0.0234,-0.3593 -0.0547,-0.7187 -0.0859,-1.082 -0.0547,-0.6758 -0.1133,-1.3633 -0.1836,-2.0586 -0.0391,-0.4219 -0.0781,-0.8477 -0.125,-1.2773 -0.0742,-0.7579 -0.1602,-1.5235 -0.25,-2.3047 -0.043,-0.3907 -0.0898,-0.7813 -0.1367,-1.1797 -0.0469,-0.3945 -0.0977,-0.793 -0.1485,-1.1953 -0.1328,-1.0742 -0.2773,-2.168 -0.4336,-3.2813 -0.0742,-0.5273 -0.1484,-1.0625 -0.2265,-1.5976 -0.0664,-0.4493 -0.1328,-0.8985 -0.2031,-1.3516 -0.0508,-0.3672 -0.1094,-0.7344 -0.1641,-1.1055 -0.0117,-0.0625 -0.0195,-0.1289 -0.0313,-0.1953 -0.0664,-0.4375 -0.1367,-0.875 -0.207,-1.3164 -0.1406,-0.8828 -0.2851,-1.7812 -0.4414,-2.6914 0,-0.008 0,-0.0195 -0.0039,-0.0312 -0.0742,-0.4414 -0.1484,-0.8907 -0.2266,-1.3399 -0.0781,-0.4609 -0.1601,-0.9219 -0.2421,-1.3906 -0.0821,-0.4688 -0.1641,-0.9375 -0.25,-1.4141 -0.168,-0.9453 -0.3438,-1.9023 -0.5235,-2.8711 -0.0859,-0.4882 -0.1797,-0.9843 -0.2734,-1.4804 -0.7969,-4.2383 -1.6992,-8.7188 -2.6992,-13.4571 -3.5821,-17.3281 -7.2149,-34.6406 -10.9414,-51.9375 -2.9727,-1.9765 -5.9493,-3.9414 -8.9415,-5.8867 -6.0468,-3.8906 -12.2617,-7.5078 -18.5078,-11.0664 -1.9375,-1.0977 -3.8672,-2.1953 -5.8047,-3.2891 -1.1953,-0.7304 -2.4179,-1.4336 -3.6523,-2.1289 h -0.0039 c 0.3672,-0.8007 0.7344,-1.6015 1.1055,-2.3984 0.3711,-0.8008 0.7422,-1.5977 1.1172,-2.3945 0.746,-1.5938 1.5,-3.1836 2.2695,-4.7657 0.3633,-0.7578 0.7305,-1.5156 1.1015,-2.2695 0.8008,-2.168 1.6993,-4.3008 2.5938,-6.4258 5.6836,-12.1484 10.1836,-25.5742 19.3789,-35.5781 -4.3711,-4.8867 -8.8711,-9.6562 -13.5508,-14.2578 -1.1914,-1.5039 -2.4062,-2.9531 -3.6133,-4.4336 -1.3711,-2.293 0.5079,-5.5117 3.2227,-5.3516 5.082,1.2227 8.6367,5.9414 12.7773,8.918 29.6016,25.9648 49.5079,60.7578 76.4336,89.2539 18.8672,20.3633 39.4336,39.0391 59.0547,58.6641 15.4805,-4.3399 30.9414,-8.793 46.543,-12.6992 9.2109,-2.3243 18.6133,-4.668 27.8476,-7.1914 z m 235.9024,989.9414 c 1.582,-30.043 2.2695,-60.1211 2.5586,-90.1993 -15.2266,2.8282 -30.4492,5.6563 -45.7305,8.1875 -35.5,5.4375 -71.1328,13.2735 -107.164,13.1953 -5.4961,29.25 -5.6915,59.3633 -0.1993,88.6524 4.7813,24.0078 9.8282,48.2383 18.4297,71.2031 8.9688,16.8985 25.875,33.0938 46.1797,32.1133 21.2149,-1.8359 44.8594,-6.2031 60.1484,-22.2187 24.3086,-26.2813 23.6524,-67.1524 25.7774,-100.9336 z m 891.7656,-72.5547 c 14.4258,-24.2657 4.7852,-53.9571 4.8516,-80.4844 -0.6797,-33.9023 -1.6797,-67.8047 -3.1836,-101.6836 -0.1367,-3.2695 -0.2734,-6.543 -0.4141,-9.8125 -4.0351,1.8516 -8.2773,3.2617 -12.5468,4.2266 -24.3165,6.6289 -49.3165,12.9257 -74.6446,13.0937 -18.1953,-0.5781 -37.3398,-7.039 -51.7812,-18.4375 0.047,0.6328 0.043,1.25 0,1.8047 0.8008,30.6797 1.2226,61.3867 3.3086,92.0195 1.9531,31.3438 3.9375,64.6563 22.0742,91.4297 25.2031,33.2774 44.7539,28.8555 81.4297,19.5547 10.2617,-3.3555 22.4375,-4.7578 30.9062,-11.7109 z m 49.1524,-651.6328 c 2.8164,-32.9454 1.2929,-66.0157 0.3632,-99.0118 -1.0625,-45.9531 -0.5234,-92.0703 -7.1757,-137.6679 -1.086,-8.3164 -2.5508,-16.5664 -4.1719,-24.7891 -11.5195,-22.6211 -25.7031,-44.1406 -42.3438,-63.3203 -20.9179,-21.8789 -50.164,-32.832 -78.5937,-41.2813 -2.5703,-0.6875 -5.1445,-1.3711 -7.7188,-2.0546 -73.4687,-18.8204 -149.3242,-29.2422 -224.7187,-36.7188 -92.2031,-6.2461 -184.4063,-21.4531 -276.7774,-23.6445 -122.75,0.6367 -245.7773,9.7109 -367.4101,26.5508 -4.0508,6.6484 -8.2227,13.2109 -12.3945,19.7187 -13.0274,20.0625 -26.9961,39.6758 -42.875,57.5898 1.7734,9.0547 2.9804,18.2344 3.3906,27.4493 1.6719,32.1718 -4.7344,64.0898 -13.4024,94.9218 -12.8359,46.7383 -34.8593,91.9532 -69.3554,126.5469 -5.168,5.3399 -10.7188,10.1563 -16.5782,14.5352 -0.6171,1.9765 -1.2617,3.9492 -1.9414,5.9062 -17.5859,50.9453 -63.1718,90.586 -108.832,116.6094 -16.5078,9.5391 -34.7695,15.0547 -52.75,21.0508 -8.7734,3 -17.5312,6.043 -26.3047,9.0312 -3.8125,1.0078 -7.6719,3.6719 -11.6562,2.1055 -3.4258,-1.2344 -3.4141,-5.5898 -0.8321,-7.7305 3.0313,-2.414 7.2266,-2.8281 10.75,-4.3242 8.7852,-3.0117 17.5547,-6.0703 26.2852,-9.2344 12.8008,-4.7148 25.6758,-9.2968 37.9961,-15.1796 45.4766,-23.0821 93.0898,-60.9571 113.539,-109.0469 -11.8085,7.0625 -24.4765,12.7617 -37.457,17.6015 -9.2851,3.9063 -18.5,7.9766 -27.7851,11.8789 -2.7344,1.3594 -6.3203,2.6172 -8.9688,0.4649 -3.0976,-2.4883 -0.6719,-7.0625 2.4297,-8.2852 4.5781,-2 9.2109,-3.8632 13.7852,-5.8672 18.8281,-8.3515 37.9335,-16.2539 55.3437,-27.2304 3.0898,-2.0821 6.0977,-4.2656 9.0313,-6.543 0.6289,-0.4844 1.2578,-0.9805 1.8789,-1.4766 0.4218,-0.3359 0.8437,-0.6757 1.2617,-1.0156 0.0351,-0.0273 0.0703,-0.0586 0.1054,-0.0859 0.4141,-0.336 0.8243,-0.6758 1.2344,-1.0156 0.9375,-0.7735 1.8672,-1.5625 2.7852,-2.3594 0.332,-0.2852 0.664,-0.5742 0.9922,-0.8633 0.0859,-0.0742 0.1679,-0.1484 0.25,-0.2187 0.3984,-0.3516 0.7968,-0.7071 1.1914,-1.0625 0.4609,-0.4102 0.9218,-0.8282 1.3789,-1.2461 0.4101,-0.3789 0.8164,-0.7539 1.2226,-1.1329 50.461,-47.039 75.0313,-122.9218 82.8243,-189.1875 1.3671,-15.1054 1.1992,-30.3632 -0.6446,-45.4218 -5.0937,5.3086 -10.3906,10.4336 -15.914,15.3398 -7.2891,6.418 -42.6914,35.793 -50.1875,33.2227 -3.5469,-0.8555 -3.7539,-5.3164 -1.4532,-7.6328 3.5391,-3.0704 8.0782,-4.8438 11.8789,-7.6055 14.1563,-9.2774 26.9414,-20.3867 39.2461,-31.8867 4.9766,-4.7266 9.7422,-9.6016 14.3321,-14.6055 0.1406,-0.1523 0.2851,-0.3086 0.4257,-0.4648 0.5391,-0.586 1.0743,-1.1758 1.6055,-1.7696 0.6719,-0.7461 1.3399,-1.4961 2.0039,-2.2461 0.004,0 0.008,-0.01 0.0117,-0.012 0.5821,-0.6601 1.1641,-1.3242 1.7422,-1.9883 0.1367,-0.1562 0.2696,-0.3086 0.4024,-0.4648 0.5703,-0.6563 1.1367,-1.3125 1.6992,-1.9727 0.0312,-0.039 0.0625,-0.074 0.0937,-0.1093 15.293,-17.918 28.6758,-37.2344 41.5743,-57.1172 1.2421,-1.9102 2.4765,-3.8243 3.6953,-5.75 0.5898,-0.9258 1.1758,-1.8516 1.7578,-2.7813 0.5859,-0.9258 1.164,-1.8555 1.7422,-2.789 0.0351,-0.055 0.0703,-0.1094 0.1054,-0.168 0.543,-0.875 1.086,-1.7539 1.6211,-2.6367 0.5743,-0.9336 1.1446,-1.8711 1.711,-2.8125 5.375,-8.8946 10.4883,-17.9493 15.2422,-27.1875 -42.1524,-16.0703 -97.6485,-19.711 -145.0899,-16.1368 3.5781,19.6485 1.2149,42.7188 -8.4375,68.4297 -2.9101,9.125 -5.6328,18.3047 -8.457,27.4571 -1.8711,4.0039 -1.5156,11.5664 -6.961,12.1914 -6.0703,-1.6446 -1.3203,-9.1524 -0.5351,-13.0977 4.3281,-14.2187 8.8633,-28.5976 12.2969,-43.0117 4.289,-17.6016 4.8515,-35.168 1.164,-51.0078 -0.1133,-0.5 -0.2343,-0.9922 -0.3593,-1.4844 -0.0821,-0.3359 -0.168,-0.6719 -0.2579,-1.0039 -0.039,-0.1445 -0.0742,-0.2852 -0.1132,-0.4258 -0.0977,-0.3633 -0.1954,-0.7226 -0.3008,-1.082 -0.0196,-0.074 -0.0391,-0.1484 -0.0586,-0.2188 -0.125,-0.4257 -0.25,-0.8515 -0.3789,-1.2734 -0.0117,-0.043 -0.0235,-0.086 -0.0391,-0.125 -0.1289,-0.4219 -0.2617,-0.8437 -0.3984,-1.2656 -0.1953,-0.6133 -0.4024,-1.2227 -0.6133,-1.8281 -7.3008,-20.8594 -22.8633,-37.8399 -48.0586,-46.5118 -16.8867,-5.7148 -34.418,-7.1328 -51.918,-5.7851 -0.3437,0.027 -0.6914,0.055 -1.0351,0.086 -0.3555,0.027 -0.7149,0.059 -1.0742,0.09 -0.8203,0.074 -1.6446,0.1523 -2.4649,0.2382 -0.2969,0.031 -0.5976,0.062 -0.8945,0.098 -1.0195,0.1094 -2.0391,0.2305 -3.0586,0.3594 -0.1953,0.023 -0.3906,0.051 -0.582,0.074 -0.8438,0.1094 -1.6836,0.2226 -2.5235,0.3437 -0.8398,0.1211 -1.6758,0.25 -2.5156,0.3789 h -0.0039 c -18.6133,2.9102 -36.9883,8.504 -54.2969,14.9102 -8.1211,3.1758 -16.0664,6.8906 -23.5156,11.4375 -2.0977,1.1445 -3.1133,4.0156 -5.957,3.4297 -13.5157,-5.5938 17.8242,-20.5547 22.6406,-22.9766 14.5976,-6.5117 29.8555,-11.7422 45.4609,-15.3203 -5.5742,-2.6367 -11.2656,-5.0469 -16.9375,-7.457 -24.7226,-11.0586 -50.5273,-20.1172 -77.7578,-21.875 -41.2344,-3.1211 -83.4726,0.9258 -121.9062,16.8789 -7.9493,3.1719 -15.7657,6.6719 -23.4219,10.5 12.8086,0.7617 25.5234,2.9766 37.8906,6.8125 5.3438,1.3516 10.0586,4.3086 15.2422,6.1094 3.9922,1.3007 8.0234,2.8007 11.6328,4.8984 2.8164,1.6484 6.1524,2.4961 8.7617,4.4297 3.3242,4.2851 -2.0468,5.6641 -5.3047,3.5234 -10.8125,-4.2187 -21.6523,-8.5742 -33.1914,-10.2578 -18.4062,-3.5195 -37.1757,-5.2851 -55.8281,-4.0976 -0.3008,0.016 -0.6055,0.035 -0.9062,0.059 -0.2891,0.019 -0.5821,0.043 -0.875,0.062 -0.2735,0.019 -0.543,0.039 -0.8164,0.062 -0.1836,0.012 -0.3633,0.027 -0.5469,0.043 -0.3945,0.031 -0.7891,0.066 -1.1797,0.1016 -0.125,0.012 -0.25,0.023 -0.375,0.035 -0.6172,0.055 -1.2305,0.1133 -1.8438,0.1758 -0.6757,0.066 -1.3476,0.1406 -2.0234,0.2188 h -0.008 c -0.6016,0.07 -1.2031,0.1406 -1.8008,0.2148 -0.789,0.1016 -1.5742,0.2031 -2.3633,0.3125 -0.5078,0.07 -1.0117,0.1445 -1.5156,0.2227 -0.1758,0.023 -0.3516,0.051 -0.5273,0.078 -0.6289,0.094 -1.2578,0.1953 -1.8868,0.3008 -0.5664,0.094 -1.1289,0.1875 -1.6953,0.289 -0.2422,0.043 -0.4843,0.086 -0.7304,0.1289 -0.5391,0.098 -1.0743,0.1993 -1.6133,0.3008 -0.4063,0.082 -0.8125,0.168 -1.2188,0.2539 -27.8515,5.7578 -58.0117,13.1328 -78.0117,34.668 -8.6133,9.2344 -13.9219,21.875 -11.1523,34.5547 3.832,20.6016 21.164,27.9453 40.5,26.2734 4.2968,-0.2383 8.5547,-0.5859 12.7734,-1.0508 1.5742,-0.1718 3.1445,-0.3593 4.7109,-0.5625 0.629,-0.078 1.2618,-0.164 1.8907,-0.25 0.2265,-0.031 0.457,-0.062 0.6836,-0.098 0.5586,-0.074 1.1132,-0.1563 1.6679,-0.2383 0.2578,-0.039 0.5157,-0.078 0.7735,-0.1172 0.4336,-0.062 0.8633,-0.1289 1.289,-0.1992 0.3321,-0.051 0.6602,-0.1016 0.9883,-0.1562 0.6485,-0.1055 1.293,-0.211 1.9375,-0.3204 0.0586,-0.01 0.1211,-0.019 0.1797,-0.031 0.6992,-0.1172 1.3945,-0.2422 2.0938,-0.3672 0.0937,-0.016 0.1914,-0.035 0.2851,-0.051 12.6289,-2.2929 24.9688,-5.6015 37.1524,-9.8867 -3.5118,-1.8281 -6.9571,-3.7734 -10.3282,-5.832 -3.6758,-2.5703 -15.3164,-10.9649 -6.8047,-13.9336 2.8399,-0.1055 4.9414,2.2383 7.1641,3.664 2.5391,1.6954 5.1641,3.211 7.8477,4.6602 4.8007,2.4453 9.7265,4.6172 14.7187,6.6328 0.832,0.3359 1.6641,0.668 2.5,0.9961 0.8242,0.3242 1.6524,0.6484 2.4844,0.9648 0.9336,0.3594 1.8672,0.711 2.8008,1.0625 0.7539,0.2852 1.5078,0.5665 2.2617,0.8438 0.0469,0.02 0.0898,0.035 0.1367,0.051 31.332,12.0898 65.3633,13.6562 98.4375,9.6836 24.0937,-2.668 48.0664,-7.6953 70.6523,-16.6289 5.2461,-2.125 10.4297,-4.3907 15.5938,-6.6993 0.957,-8.3867 5.6562,-15.9179 15.6719,-20.3867 3.6718,-1.6172 6.2265,3.9453 2.4804,5.5078 -3.332,2.5118 -5.9062,6.0079 -7.1992,9.9688 -0.039,0.1211 -0.0781,0.2422 -0.1172,0.3633 -0.0703,0.2265 -0.1328,0.4531 -0.1914,0.6797 -0.039,0.1406 -0.0742,0.2851 -0.1093,0.4257 -0.2696,1.6055 -0.3672,3.2032 -0.3204,4.7891 0.0039,0.1211 0.0079,0.2461 0.0196,0.3711 0.0039,0.168 0.0117,0.3398 0.0273,0.5117 0.0039,0.074 0.0078,0.1485 0.0156,0.2227 0.0079,0.1875 0.0235,0.3789 0.0469,0.5664 0.0117,0.1445 0.0235,0.2851 0.043,0.4297 0.0039,0.031 0.0078,0.062 0.0117,0.094 0.0234,0.2227 0.0508,0.4414 0.082,0.6641 0.0703,0.4804 0.1485,0.9609 0.2422,1.4414 0.0469,0.2383 0.0977,0.4765 0.1485,0.7148 v 0 c 1.5859,7.2774 5.914,14.0899 10.6992,19.5977 19.7617,7.9101 43,3.1758 61.3554,-6.4922 2.2188,-0.9961 4.2852,-2.8828 6.8594,-2.625 5.3008,0.2227 4.3438,6.6328 0.3242,8.2461 -6.5507,3.3828 -12.9765,6.9766 -19.3593,10.6445 -1.0235,0.4532 -2.0625,0.8789 -3.1094,1.2696 10.1445,5.6289 18.4414,14.0195 26.2969,22.4531 10.1953,10.9687 20.1953,22.1328 29.7695,33.6523 12.543,15.4336 25.3242,30.6992 37.2422,46.625 6.5898,8.9375 12.3945,18.375 17.8594,28.0235 0.004,0.01 0.0117,0.02 0.0156,0.027 0.3867,0.6836 0.7695,1.3633 1.1523,2.0469 1.3438,2.4023 2.6719,4.8164 3.9844,7.2383 -2.5859,2.0703 -5.1758,4.1406 -7.7695,6.207 -0.3789,0.3008 -0.7578,0.6055 -1.1368,0.9063 -17.3046,13.7812 -34.7226,27.4218 -52.2773,40.8828 -0.5312,0.4101 -1.0664,0.8164 -1.6016,1.2265 -2.2109,1.6953 -4.4218,3.3828 -6.6367,5.0664 -0.8945,0.6836 -1.7929,1.3672 -2.6875,2.0469 -2.8554,-2.0195 -5.7148,-4.0469 -8.5742,-6.082 -14.168,-10.0703 -28.3047,-20.2696 -42.0898,-30.1758 -16.5391,-11.4141 -34.0664,-21.2773 -51.3008,-31.5938 -10.0977,-5.9843 -19.8946,-12.4375 -29.6563,-18.9492 1.7305,7.3086 3.461,14.6211 5.1836,21.9336 1.9922,10.5352 4.6797,21.5 6.961,32.6055 0.1601,0.7695 0.3164,1.543 0.4687,2.3125 0.0859,0.4258 0.1719,0.8555 0.2539,1.2812 0.2383,1.211 0.4688,2.4219 0.6914,3.6329 3.4141,18.5078 5.0625,37.2226 -0.082,54.8007 -0.5156,1.7305 -1.1133,3.3633 -1.7852,4.8985 -9.2421,41.4726 -40.2187,54.5429 -89.0976,79.414 -41.1797,20.8477 -82.9024,41.9805 -124.1055,62.5469 -11.6015,5.8438 -23.2734,11.5625 -35,17.168 8.0274,19.2148 20.2656,36.9258 32.4414,53.5429 3.6797,5.6954 7.543,11.2618 11.5742,16.6915 0.004,0.004 0.004,0.008 0.008,0.0117 0.4804,0.6445 0.9609,1.289 1.4453,1.9297 0.0429,0.0586 0.082,0.1132 0.125,0.1679 0.4414,0.586 0.8867,1.1719 1.3359,1.7539 0.0938,0.125 0.1875,0.2461 0.2852,0.3711 0.4257,0.5586 0.8593,1.1172 1.2929,1.6719 0.5274,0.6797 1.0586,1.3555 1.5938,2.0313 29.5547,37.3164 67.2343,67.8867 109.0547,90.5898 22.3437,12.1953 46.457,20.4727 70.2031,29.4297 13.1172,4.8828 26.4609,9.164 39.6484,13.8086 4.2774,2.0429 3.6446,8.1719 -2.5859,6.9453 -37.418,-13.5547 -76.6992,-22.4024 -112.3242,-40.5664 -26.4219,-13.0469 -50.1367,-30.7852 -72.25,-50.1289 -12.9844,-11.0547 -24.9532,-23.2735 -35.6641,-36.5313 -10.207,38.9727 -12.0156,79.4297 -13.375,119.6094 -1.4609,28.6563 -4.5312,57.4258 -1.0273,86.0547 2.9726,27.918 10.8476,54.9766 19.375,81.6328 17.5273,56.3047 38.4179,114.7734 83.0625,155.5703 25.6679,22.7735 61.2304,40.0156 95.7539,48.6406 0.1211,0.0313 0.2383,0.0586 0.3593,0.086 0.5547,0.1406 1.1094,0.2773 1.6641,0.4101 0.5977,0.1446 1.1992,0.2852 1.7969,0.4258 0.289,0.0664 0.582,0.1328 0.8711,0.1992 0.5547,0.125 1.1093,0.25 1.664,0.3711 0.7032,0.1563 1.4063,0.3086 2.1094,0.4532 3.4453,0.7265 6.8711,1.3593 10.2656,1.8984 14.5625,-0.0391 21.3008,-25.2188 25.9688,-41.4141 -22.8672,-21.9492 -43.4688,-46.3515 -62.1836,-71.9375 -22.0039,-29.5625 -42.1836,-61.0586 -54.457,-96.0078 -0.7735,-2.1445 -2.7422,-8.3633 -4.5547,-15.5195 -0.0547,-0.2227 -0.1133,-0.4453 -0.168,-0.668 -0.25,-1.0039 -0.5,-2.0234 -0.7383,-3.0547 -0.1445,-0.6172 -0.2851,-1.2343 -0.4219,-1.8554 -0.0898,-0.4141 -0.1796,-0.8282 -0.2695,-1.2422 -0.0898,-0.4141 -0.1758,-0.8282 -0.2578,-1.2422 -0.0859,-0.4141 -0.168,-0.8242 -0.2461,-1.2383 -0.0508,-0.2422 -0.0976,-0.4883 -0.1406,-0.7305 -0.0703,-0.3593 -0.1328,-0.7148 -0.1992,-1.0703 -0.0469,-0.2617 -0.0899,-0.5195 -0.1368,-0.7773 -0.0937,-0.5625 -0.1875,-1.1211 -0.2734,-1.6719 -0.0586,-0.3984 -0.1172,-0.7891 -0.1719,-1.1797 -0.0273,-0.1914 -0.0547,-0.3828 -0.082,-0.5742 -0.0508,-0.3906 -0.0977,-0.7734 -0.1445,-1.1563 -0.0235,-0.1875 -0.0469,-0.375 -0.0664,-0.5585 h 0.0039 c 0.5195,0.4453 1.0429,0.8906 1.5703,1.332 0.4453,0.3789 0.8945,0.7539 1.3437,1.1211 3.2618,2.7031 6.6211,5.332 9.9961,7.9023 9.9297,7.5547 20,14.5781 28.2149,21.2813 38.2734,29.0781 78.1445,57.7031 124.8164,71.4336 31.6914,9.5429 63.9648,17.5468 96.6172,23.1757 -7.5,-37.6484 -7.6758,-76.5742 -7.2383,-114.6054 -0.1602,-6.4727 -1.332,-12.8672 -1.711,-19.3086 -0.414,-2.3672 2.3243,-4.2539 4.4766,-3.1641 5.8438,4.9766 5.3828,14.3946 6.6524,21.4492 1.7187,34.3438 0.6796,68.9102 7.1015,102.8905 0.9258,4.922 1.9102,9.8322 2.9453,14.7345 0.1328,0.625 0.2657,1.2539 0.3985,1.8789 0.2265,1.0821 0.4609,2.1641 0.6992,3.2461 0.004,0.0274 0.0117,0.0586 0.0195,0.0899 0.2578,1.1953 0.5235,2.3867 0.793,3.582 0.2422,1.0977 0.4922,2.1953 0.7422,3.293 7.6172,33.4062 17.5117,66.3672 28.7617,98.6719 1.3125,3.4804 2.6992,6.9296 4.1484,10.3476 0.3282,0.7774 0.6602,1.5508 1,2.3242 0.1328,0.3125 0.2696,0.6211 0.4063,0.9336 0.3398,0.7813 0.6836,1.5586 1.0351,2.336 0.4141,0.9297 0.8321,1.8554 1.2578,2.7773 0.4258,0.9219 0.8516,1.8438 1.2852,2.7656 6.6875,14.2539 14.332,28.0586 22.1992,41.6992 3.625,8.5704 9.6914,10.1875 18.0781,11.1094 0.3946,0.043 0.793,0.086 1.1954,0.125 0.375,0.0313 0.7461,0.0586 1.1211,0.0821 0.375,0.0273 0.746,0.0507 1.121,0.0703 0.3165,0.0195 0.6368,0.0351 0.9532,0.0507 0.2578,0.0118 0.5195,0.0235 0.7812,0.0352 0.3672,0.0156 0.7344,0.0273 1.1016,0.0391 11.9765,0.3828 23.9414,-1.1016 35.8125,-2.6016 28.2578,-3.75 56.5586,-8.6641 84.5976,-13.6211 8.9024,-1.582 17.7969,-3.1875 26.6836,-4.8476 1.2969,-0.3399 2.6563,-0.6368 4.0586,-0.9141 0.2383,-0.043 0.4766,-0.0898 0.7149,-0.1328 0.2383,-0.0469 0.4765,-0.0899 0.7148,-0.1328 0.4766,-0.086 0.961,-0.1719 1.4453,-0.2539 0.6758,-0.1172 1.3633,-0.2266 2.0508,-0.3399 0.7969,-0.1289 1.6016,-0.2539 2.4102,-0.3828 0.4297,-0.0703 0.8632,-0.1367 1.2968,-0.207 0.4493,-0.0703 0.8946,-0.1406 1.3438,-0.2149 0.3047,-0.0507 0.6094,-0.0976 0.9141,-0.1484 0.004,0 0.008,-0.004 0.0117,-0.004 11.0039,-1.8242 22.2031,-4.4688 27.2812,-14.0938 3.6758,-7.0625 5.7071,-15.2187 7.5508,-22.6875 2.6953,-12.2968 5.0859,-24.6562 7.2695,-37.0546 0.2305,-1.2891 0.4532,-2.5821 0.6758,-3.875 0.0117,-0.0704 0.0235,-0.1407 0.0352,-0.2071 0.2383,-1.3594 0.4687,-2.7226 0.6953,-4.082 3.6211,-21.418 6.6836,-42.9375 9.6719,-64.4375 3.75,-29.1016 7.3593,-58.2188 10.875,-87.3477 0.3242,-2.707 0.6484,-5.414 0.9765,-8.1211 2.375,-19.789 4.7071,-39.5781 7.0156,-59.375 1.4688,-5.5742 -0.621,-14.8711 4.9532,-17.8867 3.8281,-1.6484 6.6367,3.3086 5.8242,6.6602 -2.9297,23.5234 -5.4492,47.0937 -7.9141,70.6719 11.5078,-0.0352 23.0274,-0.4415 34.5196,-0.6329 115.5078,-3.0898 231.0312,-12.9921 345.0312,-32.039 71.6641,-11.4414 142.4531,-28 210.9336,-51.7813 -2.125,-6.1562 -4.2109,-12.3203 -6.25,-18.5039 -8.75,-31.7109 -16.2422,-62.9531 -23.5625,-94.9062 -2.75,-15.9024 -5.1875,-32.3946 -3.2031,-48.5 0.1484,-3.4297 4.1015,-9.2539 7.2226,-4.7305 -0.2226,5.4844 -0.7421,11.25 0.055,16.9102 1.7344,29.8945 11.6133,59.5351 18.625,88.1211 3.2227,12.707 6.2617,25.2539 9.9844,37.7851 2.1055,6.8594 4.3672,13.668 6.7266,20.4414 0.066,0.1914 0.1328,0.3867 0.2031,0.5781 0.4219,1.211 0.8476,2.418 1.2773,3.625 0.1172,0.336 0.2383,0.6758 0.3594,1.0157 0.2969,0.8359 0.5938,1.6679 0.8945,2.5 0.1836,0.5078 0.3672,1.0195 0.5508,1.5273 3.3672,9.3555 6.8672,18.6641 10.3242,27.9883 0.039,0.1016 0.074,0.2031 0.1133,0.3047 0.543,1.4609 1.086,2.9258 1.6211,4.3867 0.5781,1.5625 1.1563,3.125 1.7266,4.6914 0.8594,2.3594 1.7148,4.7227 2.5625,7.0898 10.3945,28.1641 20.1289,57.1719 34.8398,83.379 9.6406,21.0234 30.3125,33.9296 52.5078,38.3242 23.1602,2.8789 46.375,-3.5899 68.8828,-8.4219 10.043,-2.3908 19.9844,-4.7969 28.1446,-9.3594 0.914,-0.5117 1.8086,-1.0508 2.6758,-1.6211 0.164,-0.1056 0.3242,-0.2109 0.4843,-0.3203 0.3555,-0.2383 0.7071,-0.4844 1.0508,-0.7383 0.168,-0.1211 0.336,-0.2422 0.5,-0.3672 0.1641,-0.1212 0.3281,-0.2462 0.4922,-0.375 0.3281,-0.25 0.6484,-0.5078 0.9688,-0.7773 0.1601,-0.1289 0.3164,-0.2617 0.4726,-0.3986 0.3125,-0.2655 0.6211,-0.5428 0.9258,-0.828 0.1484,-0.1367 0.2969,-0.2734 0.4414,-0.4181 0,0.004 0.01,0 0.012,-0.008 4.6445,-4.4452 8.1328,-10.3123 9.9024,-18.3241 11.5507,-51.0937 7.9804,-104.0898 5.5781,-155.9961 0.055,-38.746 -2.0235,-77.375 -5.5195,-115.9453 -7.1055,0.8243 -13.9571,0.9219 -19.879,0.3008 -16.2773,-2.6836 -26.9765,-15.3008 -32.875,-30.0508 -0.1132,-0.2851 -0.2265,-0.5742 -0.3398,-0.8632 -0.4453,-1.1524 -0.8594,-2.3204 -1.2461,-3.4922 -0.098,-0.2852 -0.1875,-0.5743 -0.2773,-0.8633 -0.074,-0.2266 -0.1446,-0.4531 -0.2149,-0.6797 -0.1094,-0.3555 -0.2187,-0.7148 -0.3203,-1.0742 0,-0.0117 -0.01,-0.0235 -0.012,-0.0352 -1.5586,-5.3711 -2.5352,-10.8554 -2.9649,-16.1094 -2.9375,-23.996 -4.121,-48.1796 -4.9101,-72.332 -1.6016,-44.7773 -5.7578,-89.7969 -15.8438,-133.5156 -1.1132,-4.3164 -2.3632,-8.5938 -3.6562,-12.8594 -1.1094,-3.6562 -2.25,-7.3047 -3.3711,-10.957 1.3633,-1.7422 2.7266,-3.4844 4.0859,-5.2266 0.6524,-0.832 1.3086,-1.6679 1.9649,-2.5 9.6758,-12.3086 19.4101,-24.707 27.8711,-37.8281 -1.6094,-3.25 -3.2539,-6.4883 -4.9414,-9.7031 -16.586,-29.4414 -39.1446,-54.8946 -64.6055,-76.9571 -1.9063,-1.664 -5.25,-2.6992 -4.5742,-5.8515 1.5469,-4.8477 6.8828,-1.8672 9.625,0.1484 27.8554,20.8985 50.875,47.9219 68.5117,77.8711 0.7852,1.3633 1.5508,2.7344 2.293,4.1172 0.02,0.0352 0.039,0.0703 0.055,0.1055 0.1914,0.3476 0.375,0.6953 0.5585,1.0429 0.5469,1.0235 1.0821,2.0547 1.6055,3.0899 0.2617,0.5117 0.5195,1.0273 0.7735,1.539 0.5781,1.1641 1.1484,2.336 1.707,3.5079 -0.7227,1.2656 -1.457,2.5234 -2.207,3.7773 -0.5743,0.9648 -1.1563,1.9219 -1.7422,2.8789 -0.7383,1.1953 -1.4805,2.3828 -2.2305,3.5664 -0.078,0.1211 -0.1523,0.2422 -0.2305,0.3633 -2.0586,3.2344 -4.164,6.4219 -6.2656,9.5703 -6.8945,9.8633 -14.3828,19.2813 -21.8945,28.6797 2.2539,5.9961 4.1211,12.043 5.2343,15 13.5235,47.9531 17.2305,98.2539 18.961,147.8633 0.7461,20.6523 2.0898,41.2851 4.3594,61.8281 0.6875,5.543 1.3984,11.2305 2.7656,16.6992 0.062,-0.0117 0.1211,-0.0273 0.1836,-0.039 8.5,-1.7344 16.9375,-3.754 25.3554,-5.8438 11.9024,-2.9492 23.7618,-6.457 35.4961,-10.3437 4.6641,-32.4532 10.8321,-64.6797 13.5782,-97.3711 z m 33.8476,-9.3789 c 1.3047,23.871 4.9571,57.6484 2.0977,88.0195 -0.043,0.457 -0.086,0.9101 -0.1328,1.3633 -0.043,0.4023 -0.082,0.8086 -0.125,1.2109 -0.1368,1.2539 -0.2813,2.5 -0.4414,3.7383 -0.043,0.3476 -0.09,0.6992 -0.1368,1.043 -0.043,0.3398 -0.09,0.6757 -0.1367,1.0078 -0.051,0.3515 -0.1015,0.7031 -0.1523,1.0586 -0.062,0.4414 -0.1328,0.8828 -0.1992,1.3203 -2.6641,17.2109 -7.9297,32.7031 -17.5821,43.8008 -6.4492,6.6171 -16.1054,11.6015 -26.6601,14.9531 -0.2305,0.0703 -0.461,0.1445 -0.6914,0.2148 -0.4688,0.1446 -0.9375,0.2852 -1.4063,0.4219 -0.3047,0.0898 -0.6094,0.1797 -0.914,0.2656 -0.3047,0.0899 -0.6133,0.1758 -0.9219,0.2578 -0.1016,0.0274 -0.2031,0.0547 -0.3047,0.0821 -0.2109,0.0586 -0.4219,0.1132 -0.6367,0.1718 -1.2305,0.3243 -2.4649,0.6289 -3.7071,0.9102 -0.4726,0.1094 -0.9492,0.2148 -1.4257,0.3164 -0.01,0 -0.016,0.004 -0.024,0.004 -0.4726,0.1016 -0.9492,0.1992 -1.4258,0.2969 -0.01,0 -0.016,0.004 -0.023,0.004 -0.7187,0.1445 -1.4375,0.2812 -2.1562,0.4101 0.2578,3.1524 0.5273,6.3008 0.8046,9.4454 0,0.0586 0.012,0.1211 0.016,0.1796 0.1172,1.2891 0.2343,2.5782 0.3515,3.8672 0.125,1.3516 0.2539,2.6993 0.3867,4.0469 0.125,1.293 0.254,2.5859 0.3868,3.875 0.01,0.0859 0.016,0.168 0.023,0.25 0.1367,1.3203 0.2734,2.6406 0.418,3.957 0.043,0.3672 0.082,0.7344 0.1211,1.1016 3.7851,34.1406 4.0507,68.4609 5.457,102.7383 1.1914,25.7226 4.3906,51.4648 2.9141,77.2344 -1.9844,25.7851 -1.8125,52.3906 -10.8008,76.6953 -3.2305,8.5195 -9.2656,15.2773 -16.6367,20.2459 0.3398,7.8752 0.6718,15.7541 1.0039,23.6291 1.6679,33.6953 2.9023,67.4062 4.0664,101.1172 1,26.0976 9.0156,57.6015 -9.6719,79.3203 -6.9258,5.7109 -16.2266,7.5117 -24.543,10.414 -18.4414,4.5821 -37.5078,11.3438 -56.7109,9.1055 -23.2539,-2.9063 -42.5391,-23.5039 -51.8281,-44.0273 -7.8516,-16.0704 -12.1289,-33.7657 -13.7735,-51.4766 -3.414,-32.4727 -4.4804,-65.1875 -4.6406,-97.8281 0.8438,-8.5469 -1.6172,-25.0547 3.8477,-31.3633 -0.2383,-0.2266 -0.4766,-0.4611 -0.711,-0.6914 -15.0898,-17.4375 -24.7461,-40.1289 -33.3633,-61.1211 -6.2187,-16.6563 -12.5,-33.2969 -18.6679,-49.9844 -19.9375,9.5703 -39.918,19.0469 -60.0117,28.2852 -6.1016,2.6758 -12.2227,5.3086 -18.3594,7.9023 -0.035,33.793 0.1875,67.5897 -0.9414,101.3672 -1.3828,23.0195 4.4375,48.5469 -7.9141,69.1758 -4.957,6.9492 -13.9219,8.6172 -21.4766,11.4453 -17.4101,4.9766 -35.9257,10.832 -54.0859,6.668 -10.1836,-2.5274 -18.2344,-10.1485 -25.5508,-17.2969 -12.6367,-16.1953 -16.25,-36.9531 -19.625,-56.6914 -3.5078,-20.2969 -8.2773,-40.3477 -12.1484,-60.5625 -8.2656,2.9609 -16.5352,5.9178 -24.8047,8.8711 -124.9375,43.6367 -252.5117,85.4219 -383.7109,103.8828 -2.5469,15.1133 -5.4102,30.1719 -9.086,45.0469 -3.5508,13.6015 -8.4844,29.5898 -22.5078,35.5859 -7.0586,3.1914 -14.6836,4.6953 -22.2734,6.0586 0.0898,31.6641 -0.5313,63.3047 -2.2617,94.9414 -2.461,75.3555 -14.9415,129.082 -102.5704,129.9688 C 313.5506,100.219 298.0154,88.34 287.4295,73.5861 278.9021,62.094 276.199,47.6604 272.1521,34.2111 c -7.8007,-28.3945 -14.0586,-57.539 -14.1015,-87.1093 -0.1406,-9.4454 1.5312,-32.5899 5.875,-47.461 -18.0352,-2.7304 -21.543,-12.0195 -31.3633,-29.8984 -6.1406,-10.6758 -11.6016,-21.6524 -16.5195,-32.8555 -13.625,0.5274 -27.2618,0.7344 -40.8946,0.6094 -23.1015,-0.8672 -47.7187,0.7461 -69.4179,-8.3398 -8.2266,-4.9493 -16.2188,-10.2266 -23.9805,-15.7969 0.0742,3.4492 0.1445,6.8984 0.2227,10.3437 0.5195,28.4219 1.9023,56.8203 1.5234,85.2539 -1.2383,21.9219 4.6016,82.4883 -19.1055,91.7696 -16.0351,5.1523 -32.8398,10.832 -49.8242,11.4609 -0.0312,0 -0.0625,0.0039 -0.0937,0.0039 -0.9961,0.0352 -1.9961,0.0547 -2.9922,0.0547 -2.0703,0 -4.1446,-0.082 -6.2188,-0.25 C 4.8516,11.9453 4.4336,11.8945 4.0156,11.8398 3.6797,11.7969 3.3398,11.7539 3,11.707 2.918,11.6992 2.832,11.6875 2.7461,11.6758 -15.4766,9.2305 -38.9063,3.4609 -52.5547,-8.3789 c -9.9141,-8.6719 -13.3476,-22.1406 -17.4922,-34.1641 -10.875,-35.2109 -17.457,-71.7695 -18.7187,-108.6211 -0.3047,-18.9062 -1.4063,-38.1992 2.0508,-56.8554 -40.4063,-26.9649 -69.3164,-66.6875 -90.1172,-120.1875 -21.6524,-60.5117 -45.2188,-122.9571 -41.4297,-188.2852 3.418,-44.5937 2.4101,-89.6719 9.9453,-133.8594 2.2734,-12.4648 5.8125,-24.6562 10.1289,-36.5625 -17.7187,-24.6171 -37.5547,-49.6406 -49.3555,-77.5273 -0.0507,-0.1211 -0.1015,-0.2422 -0.1523,-0.3633 -0.1445,-0.3437 -0.2891,-0.6875 -0.4297,-1.0312 -0.4062,-0.9844 -0.8047,-1.9727 -1.1875,-2.9649 -0.1445,-0.3672 -0.2852,-0.7304 -0.4219,-1.0976 -0.4179,-1.0977 -0.8203,-2.2032 -1.2109,-3.3125 -4.7227,-13.4375 -7.4297,-27.5664 -7.0508,-42.6485 -0.1719,-4.8242 -0.0156,-12.4492 0.7774,-20.7578 -28.0938,7.2266 -56.4688,13.3164 -85.3008,15.6406 -0.5782,0.0196 -1.1524,0.0313 -1.7149,0.0313 -21.0937,0.004 -30.9375,-14.7969 -40.6953,-31.6992 -0.1914,-0.3125 -0.3789,-0.6211 -0.5664,-0.9336 -0.0703,-0.1133 -0.1406,-0.2305 -0.207,-0.3438 -0.3594,-0.5859 -0.711,-1.1758 -1.0625,-1.7656 -0.3399,-0.5703 -0.6797,-1.1445 -1.0156,-1.7227 -0.2188,-0.371 -0.4375,-0.7421 -0.6524,-1.1171 -0.4453,-0.7618 -0.8828,-1.5235 -1.3203,-2.2891 -0.2383,-0.418 -0.4727,-0.832 -0.7109,-1.25 -7.9102,-14.0039 -14.8164,-28.5391 -21.5743,-43.0977 -2.2187,-4.7695 -4.3945,-9.5586 -6.5898,-14.3437 -0.3984,-0.8711 -0.7969,-1.7383 -1.1992,-2.6094 -0.2852,-0.6289 -0.5781,-1.2578 -0.8672,-1.8867 -0.457,-0.9922 -0.918,-1.9805 -1.3789,-2.9688 -0.457,-0.9882 -0.918,-1.9765 -1.3828,-2.9609 -0.3985,-0.8789 -0.8086,-1.7578 -1.2227,-2.6406 -0.0156,-0.0313 -0.0312,-0.0586 -0.043,-0.0899 -0.2148,-0.457 -0.4335,-0.914 -0.6562,-1.3711 -0.1914,-0.4062 -0.3906,-0.8085 -0.5859,-1.2148 -0.4727,-0.9687 -0.9493,-1.9414 -1.4258,-2.9141 -0.2578,-0.5234 -0.5196,-1.0468 -0.7774,-1.5703 -1.039,-2.1015 -2.0781,-4.2187 -3.082,-6.3476 -0.1445,-0.3047 -0.2852,-0.6055 -0.4297,-0.9141 -0.1445,-0.3047 -0.2851,-0.6094 -0.4258,-0.918 -0.1406,-0.3046 -0.2773,-0.6093 -0.4179,-0.914 -0.8321,-1.836 -1.6289,-3.6836 -2.3672,-5.5469 -0.125,-0.3125 -0.2461,-0.6211 -0.3633,-0.9336 -0.1484,-0.3828 -0.293,-0.7617 -0.4336,-1.1445 -0.1797,-0.4805 -0.3516,-0.961 -0.5195,-1.4414 -0.0274,-0.0782 -0.0547,-0.1524 -0.0782,-0.2266 -0.1093,-0.3125 -0.2148,-0.6289 -0.3203,-0.9414 -0.1914,-0.5781 -0.375,-1.1523 -0.5507,-1.7344 -0.0196,-0.0547 -0.0352,-0.1093 -0.0469,-0.1601 -0.0938,-0.2969 -0.1797,-0.5938 -0.2617,-0.8907 -0.008,-0.0195 -0.0157,-0.039 -0.0196,-0.0585 -1.75,-6.125 -2.5898,-12.418 -1.7617,-18.9454 1.5274,-9.9375 7.543,-18.3359 13.8477,-25.8671 8.9336,-10.836 18.4609,-21.4297 27.6914,-31.9415 19.8359,-23.3984 41.9765,-44.5586 65.6484,-64.0273 22.0859,-18.8242 44.668,-37.0938 68.832,-53.1992 0.8594,-0.5821 1.7188,-1.1641 2.5782,-1.7422 -1.2188,0.012 -2.4375,0.012 -3.6524,0.01 -25.5312,-0.6211 -43.4609,-19.75 -43.1562,-45.1758 -0.1133,-14.0312 7.3359,-26.8164 16.8945,-36.6172 18.8242,-19.3906 45.7461,-27.6093 71.3555,-33.7617 10.9492,-2.6601 22.1133,-4.4297 33.3281,-5.1719 14.7812,-9.2617 30.5469,-16.9453 46.8516,-23.1328 46.5468,-17.957 98.3906,-20.7929 147.2968,-12.1992 23.9532,4.7813 46.461,14.875 68.4102,25.3242 5.4726,2.6914 10.8594,5.5703 16.0273,8.8086 63.1602,-9.1719 111.5664,15.0352 124.9727,60.8711 12.6015,-1.2265 25.3086,-1.6601 37.8945,-1.9531 27.6758,-0.5234 55.3633,2.0976 82.3789,8.1914 7.8125,1.7422 15.5235,3.9141 23.1719,6.2695 2.8555,0.8164 5.8164,1.7188 8.7109,2.8047 v 0 c 0.0118,0 0.0235,0.01 0.0352,0.016 0.3633,0.1368 0.7226,0.2735 1.0859,0.418 0.7149,0.2813 1.4258,0.5742 2.125,0.8828 1.7774,0.7774 3.5078,1.6445 5.1407,2.6211 -0.293,0.6836 -0.5899,1.3633 -0.8907,2.043 -0.1797,0.4101 -0.3593,0.8164 -0.5429,1.2226 -0.1954,0.4414 -0.3946,0.8789 -0.5938,1.3203 -0.0898,0.1954 -0.1797,0.3907 -0.2695,0.5899 -0.3008,0.6562 -0.6055,1.3164 -0.9102,1.9726 -0.0312,0.062 -0.0625,0.125 -0.0937,0.1915 -0.3282,0.7031 -0.6602,1.4062 -0.9961,2.1054 -0.0313,0.066 -0.0664,0.1367 -0.0977,0.2031 -3.5625,7.4102 -7.4687,14.6719 -11.582,21.8165 128.0976,-17.0782 257.7578,-27.9493 386.9687,-25.0196 51.0352,2.4883 101.8008,8.1875 152.5938,13.6406 51.88666,5.5504 75.78244,7.7215 101.2734,9.5273 5.2383,0.543 10.4805,1.0976 15.7266,1.6641 2.4805,0.2695 4.957,0.539 7.4375,0.8125 0.2891,0.031 0.5781,0.062 0.8672,0.094 5.5586,0.6133 11.125,1.2422 16.6914,1.8867 1.8516,0.2149 3.707,0.4336 5.5625,0.6524 0.6641,0.078 1.3281,0.1562 1.9961,0.2382 3.0976,0.3672 6.1914,0.7422 9.289,1.125 0.9727,0.1172 1.9454,0.2383 2.918,0.3594 3.4453,0.4258 6.8867,0.8633 10.3281,1.3047 13.1211,1.6953 26.2305,3.5117 39.3125,5.4961 3.8008,0.5742 7.5977,1.1641 11.3946,1.7695 4.5,0.7149 9,1.4532 13.4883,2.2149 1.8164,0.3047 3.6367,0.6172 5.4531,0.9297 0.6875,0.1172 1.375,0.2382 2.0625,0.3593 0.9453,0.1641 1.8906,0.3321 2.8359,0.5 10.4141,1.8399 20.7969,3.8086 31.1485,5.9258 1.1875,0.2422 2.375,0.4883 3.5625,0.7344 2.164,0.4492 4.332,0.9023 6.4921,1.3672 1.3907,0.3008 2.7852,0.5976 4.1758,0.9023 0.8828,0.1914 1.7617,0.3828 2.6406,0.5821 2.1055,0.4609 4.211,0.9336 6.3125,1.4101 3.875,0.8828 7.7422,1.7852 11.6055,2.7149 3.8477,0.9218 7.6875,1.8711 11.5235,2.8437 1.2773,0.3242 2.5546,0.6524 3.832,0.9805 3.8125,0.9844 7.6172,1.9922 11.414,3.0234 1.2891,0.3516 2.5782,0.7031 3.8672,1.0625 2.5235,0.6953 5.0391,1.4063 7.5547,2.1289 0.02,0.01 0.035,0.012 0.055,0.02 10.8453,3.7126 20.4159,7.7465 29.2109,12.2382 0.2188,0.1133 0.4375,0.2266 0.6563,0.3399 3.961,2.0622 10.6921,5.7476 17.3008,10.3476 0.1836,0.1289 0.3711,0.2578 0.5547,0.3868 0.2578,0.1796 0.5156,0.3593 0.7734,0.5429 0.3867,0.2696 0.7695,0.5469 1.1523,0.8242 0.051,0.035 0.1016,0.07 0.1485,0.1055 0.5156,0.375 1.0312,0.7539 1.5469,1.1367 0.4843,0.3594 0.9648,0.7227 1.4453,1.0899 0.043,0.031 0.086,0.066 0.125,0.098 0.5195,0.3985 1.0351,0.7969 1.5468,1.2032 0.012,0.01 0.024,0.019 0.035,0.031 0.4492,0.3516 0.8906,0.707 1.332,1.0664 0.059,0.047 0.1172,0.094 0.1758,0.1445 10.832,8.8125 20.457,19.4336 28.5235,32.4375 35.1358,47.0558 44.5799,84.65762 49.3945,153.1993 2.7109,49.1523 7.5351,98.1328 11.5234,147.1797 z"
         style="fill:#000000;fill-opacity:1;fill-rule:nonzero;stroke:none"
         transform="matrix(1.3333333,0,0,1.3333333,2066.9063,2136.5885)"
         id="path7" />
    </g>
  </g>
</svg>
